<svg xmlns="http://www.w3.org/2000/svg" viewBox="0 0 64 64"><path fill="#0061c2" d="M48 0H16C7.16344 0 0 7.16344 0 16v32c0 8.8366 7.16344 16 16 16h32c8.8366 0 16-7.1634 16-16V16c0-8.83656-7.1634-16-16-16"/><path fill="#fff" d="M45.8233 43.1378c-1.6832 0-3.1321-.3409-4.3465-1.0227-1.2074-.689-2.1378-1.662-2.7912-2.9191-.6535-1.2642-.9802-2.7592-.9802-4.4851 0-1.6832.3267-3.1605.9802-4.4318.6534-1.2713 1.5731-2.2621 2.7592-2.9723 1.1932-.7102 2.5923-1.0653 4.1974-1.0653 1.0796 0 2.0846.174 3.0149.522.9375.3409 1.7543.8558 2.4503 1.5447.7032.689 1.25 1.5554 1.6407 2.5995.3906 1.0369.5859 2.2514.5859 3.6434v1.2465H39.5165v-2.8125h9.5455c0-.6534-.1421-1.2323-.4262-1.7365-.284-.5043-.6782-.8985-1.1825-1.1825-.4971-.2912-1.076-.4368-1.7365-.4368q-1.03335 0-1.8324.4794c-.5255.3125-.9375.7351-1.2358 1.2677-.2983.5256-.451 1.1115-.4581 1.7578v2.674c0 .8097.1492 1.5093.4475 2.0988.3054.5894.7351 1.044 1.289 1.3636.554.3196 1.211.4794 1.9709.4794.5043 0 .9659-.071 1.385-.2131.419-.142.7777-.3551 1.076-.6392.2982-.2841.5255-.6321.6818-1.044l4.1974.277c-.2131 1.0085-.6498 1.8892-1.3104 2.642-.6534.7458-1.4985 1.3282-2.5355 1.7472-1.0298.4119-2.2194.6179-3.5689.6179M11 21h5.6889l6.0085 14.6591h.2557L28.9616 21h5.689v21.8182h-4.4745v-14.201h-.1811l-5.6463 14.0944h-3.0469l-5.6463-14.1477h-.1811v14.2543H11z"/></svg>
