<svg xmlns="http://www.w3.org/2000/svg" viewBox="0 0 130 35"><path fill="#0061c2" d="M122.336 33.8281V9.82813h6.656V33.8281zm3.344-27.09372c-.99 0-1.839-.32813-2.547-.98438-.698-.66667-1.047-1.46354-1.047-2.39062q0-1.375005 1.047-2.35938c.708-.666666 1.557-1 2.547-1 .989 0 1.833.333334 2.531 1q1.062.984375 1.062 2.35938c0 .92708-.354 1.72395-1.062 2.39062-.698.65625-1.542.98438-2.531.98438M117.004 1.82812V33.8281h-6.656V1.82812zM105.496 9.82812v4.99998H91.043V9.82812zm-11.1718-5.75h6.6558V26.4531c0 .6146.094 1.0938.282 1.4375.187.3334.448.5677.781.7032.344.1354.74.2031 1.187.2031.313 0 .625-.0261.938-.0781.312-.0625.552-.1094.719-.1407l1.047 4.9531c-.334.1042-.802.224-1.407.3594-.604.1459-1.338.2344-2.203.2656-1.604.0625-3.0102-.151-4.2185-.6406q-1.79685-.7344-2.7969-2.2812c-.6667-1.0313-.9948-2.3334-.9844-3.9063zM77.3711 34.2969q-3.7032 0-6.375-1.5-2.6562-1.5156-4.0938-4.2813c-.9583-1.8541-1.4375-4.0468-1.4375-6.5781 0-2.4687.4792-4.6354 1.4375-6.5.9584-1.8646 2.3073-3.3177 4.0469-4.3594 1.75-1.0416 3.8021-1.56248 6.1563-1.56248 1.5833 0 3.0573.25521 4.4218.76558 1.375.5 2.573 1.2553 3.5938 2.2657 1.0312 1.0104 1.8333 2.2812 2.4062 3.8125.573 1.5208.8594 3.3021.8594 5.3437v1.8281H68.1211v-4.125h14c0-.9583-.2083-1.8072-.625-2.5468s-.9948-1.3177-1.7344-1.7344c-.7291-.4271-1.5781-.6406-2.5469-.6406-1.0104 0-1.9062.2343-2.6875.7031-.7708.4583-1.375 1.0781-1.8125 1.8594-.4375.7708-.6614 1.6302-.6718 2.5781v3.9219c0 1.1875.2187 2.2135.6562 3.0781.4479.8646 1.0781 1.5313 1.8906 2s1.7761.7031 2.8907.7031c.7396 0 1.4166-.1041 2.0312-.3125.6146-.2083 1.1406-.5208 1.5781-.9375.4375-.4166.7709-.9271 1-1.5312l6.1563.4062c-.3125 1.4792-.9531 2.7709-1.9219 3.875-.9583 1.0938-2.1979 1.9479-3.7187 2.5625q-2.2656.9063-5.2344.9063M51.0742 34.2969q-3.70305 0-6.375-1.5c-1.7708-1.0104-3.1354-2.4375-4.0937-4.2813-.9584-1.8541-1.4375-4.0468-1.4375-6.5781 0-2.4687.4791-4.6354 1.4375-6.5.9583-1.8646 2.3073-3.3177 4.0468-4.3594 1.75-1.0416 3.8021-1.56248 6.1563-1.56248 1.5833 0 3.0573.25521 4.4219.76558 1.375.5 2.5729 1.2553 3.5937 2.2657 1.0313 1.0104 1.8334 2.2812 2.4063 3.8125.5729 1.5208.8593 3.3021.8593 5.3437v1.8281H41.8242v-4.125h14c0-.9583-.2083-1.8072-.625-2.5468-.4166-.7396-.9948-1.3177-1.7344-1.7344-.7291-.4271-1.5781-.6406-2.5468-.6406-1.0104 0-1.9063.2343-2.6875.7031-.7709.4583-1.375 1.0781-1.8125 1.8594-.4375.7708-.6615 1.6302-.6719 2.5781v3.9219c0 1.1875.2187 2.2135.6562 3.0781.448.8646 1.0782 1.5313 1.8907 2s1.776.7031 2.8906.7031c.7396 0 1.4167-.1041 2.0312-.3125.6146-.2083 1.1407-.5208 1.5782-.9375.4375-.4166.7708-.9271 1-1.5312l6.1562.4062c-.3125 1.4792-.9531 2.7709-1.9219 3.875-.9583 1.0938-2.1979 1.9479-3.7187 2.5625q-2.2656.9063-5.2344.9063M0 1.82812h8.34375L17.1562 23.3281h.375l8.8126-21.49998h8.3437V33.8281H28.125V13h-.2656l-8.2813 20.6719h-4.4687l-8.28128-20.75H6.5625v20.9062H0z"/></svg>
